<svg width="24" height="25" viewBox="0 0 24 25" fill="none" xmlns="http://www.w3.org/2000/svg">
<g clip-path="url(#clip0_1015_407)">
<path fill-rule="evenodd" clip-rule="evenodd" d="M7.75943 4.75059C6.70341 4.75346 5.82533 4.77011 5.10825 4.86652C4.20814 4.98754 3.45027 5.24643 2.84835 5.84835C2.24643 6.45027 1.98754 7.20814 1.86652 8.10825C1.74996 8.97521 1.74998 10.0775 1.75 11.4451V15.5549C1.74998 16.9225 1.74996 18.0248 1.86652 18.8918C1.98754 19.7919 2.24643 20.5497 2.84835 21.1516C3.45027 21.7536 4.20814 22.0125 5.10825 22.1335C5.97522 22.25 7.07754 22.25 8.44512 22.25H15.5549C16.9225 22.25 18.0248 22.25 18.8918 22.1335C19.7919 22.0125 20.5497 21.7536 21.1517 21.1516C21.7536 20.5497 22.0125 19.7919 22.1335 18.8918C22.25 18.0248 22.25 16.9225 22.25 15.5549V11.4451C22.25 10.0775 22.25 8.97522 22.1335 8.10825C22.0125 7.20814 21.7536 6.45027 21.1517 5.84835C20.5497 5.24643 19.7919 4.98754 18.8918 4.86652C18.1747 4.77011 17.2966 4.75346 16.2406 4.75059C16.1132 3.0722 14.711 1.75 13 1.75H11C9.28899 1.75 7.8868 3.0722 7.75943 4.75059ZM9.26772 4.75H14.7323C14.611 3.90193 13.8816 3.25 13 3.25H11C10.1184 3.25 9.38903 3.90193 9.26772 4.75Z" fill="#FFBA00"/>
<path d="M5.25 12C5.25 11.5858 5.58579 11.25 6 11.25H18C18.4142 11.25 18.75 11.5858 18.75 12C18.75 12.4142 18.4142 12.75 18 12.75H6C5.58579 12.75 5.25 12.4142 5.25 12Z" fill="white"/>
<path d="M6 15.75C5.58579 15.75 5.25 16.0858 5.25 16.5C5.25 16.9142 5.58579 17.25 6 17.25H18.5C18.9142 17.25 19.25 16.9142 19.25 16.5C19.25 16.0858 18.9142 15.75 18.5 15.75H6Z" fill="white"/>
</g>
<defs>
<clipPath id="clip0_1015_407">
<rect width="24" height="25" fill="white"/>
</clipPath>
</defs>
</svg>
