<svg width="32" height="32" viewBox="0 0 32 32" fill="none" xmlns="http://www.w3.org/2000/svg">
<g clip-path="url(#clip0_1015_426)">
<path d="M30.734 17.6285C31.0223 17.2577 31.1624 16.7799 31.0347 16.2924L27.2489 1.94292C27.0292 1.11352 26.1764 0.616474 25.3484 0.836158L1.15755 7.21445C0.332285 7.4328 -0.166158 8.2883 0.0507889 9.1163L3.8366 23.4644C4.05355 24.2924 4.91039 24.7895 5.73846 24.5726L14.2863 22.3179V27.1225C14.2863 29.8098 18.7395 31.2159 23.1418 31.2159C27.5414 31.2159 32.0001 29.8098 32.0001 27.1226V19.8365C32 18.9618 31.5208 18.2258 30.734 17.6285ZM27.9945 12.6824L28.3899 14.1764L23.5811 15.4465L23.1884 13.9498L27.9945 12.6824ZM25.2042 3.22958L25.9553 6.07478L18.4428 8.0576L17.6917 5.2124L25.2042 3.22958ZM21.8332 14.3068L22.2176 15.7678C20.4394 15.8475 18.7093 16.1578 17.3196 16.6878L17.0258 15.5783L21.8332 14.3068ZM5.09163 20.3212L4.69892 18.83L9.50632 17.5584L9.90176 19.0579L5.09163 20.3212ZM10.8617 17.2028L15.6663 15.9326L16.0302 17.3017C15.9135 17.3731 15.8036 17.4472 15.6965 17.5227L11.2544 18.6954L10.8617 17.2028ZM30.3962 27.0044C30.3962 28.5711 27.1501 29.84 23.1418 29.84C19.1377 29.84 15.8888 28.5698 15.8888 27.0044V25.2399C15.8888 25.1808 15.9231 25.1273 15.9327 25.071C16.162 26.5568 19.2846 27.7349 23.1418 27.7349C27.0004 27.7349 30.1243 26.5567 30.3523 25.071C30.3619 25.1273 30.3962 25.1809 30.3962 25.2399V27.0044ZM30.3962 23.533C30.3962 25.0985 27.1501 26.3672 23.1418 26.3672C19.1377 26.3672 15.8888 25.0985 15.8888 23.533V21.7686C15.8888 21.7109 15.9231 21.6559 15.9327 21.5997C16.162 23.0841 19.2846 24.265 23.1418 24.265C27.0004 24.265 30.1243 23.0841 30.3523 21.5997C30.3619 21.6559 30.3962 21.7109 30.3962 21.7686V23.533ZM23.1418 22.6693C19.1377 22.6693 15.8888 21.4006 15.8888 19.8365C15.8888 18.2725 19.1376 17.0037 23.1418 17.0037C27.15 17.0037 30.3961 18.2725 30.3961 19.8365C30.3962 21.4006 27.15 22.6693 23.1418 22.6693Z" fill="#66BB6A"/>
</g>
<defs>
<clipPath id="clip0_1015_426">
<rect width="32" height="32" fill="white"/>
</clipPath>
</defs>
</svg>
